<?xml version="1.0" standalone="no"?><!DOCTYPE svg PUBLIC "-//W3C//DTD SVG 1.1//EN" "http://www.w3.org/Graphics/SVG/1.1/DTD/svg11.dtd"><svg t="1727581443199" class="icon" viewBox="0 0 1253 1024" version="1.1" xmlns="http://www.w3.org/2000/svg" p-id="5638" xmlns:xlink="http://www.w3.org/1999/xlink" width="244.7265625" height="200"><path d="M1253.034667 1024h-202.183111l-143.303112-339.456a345.884444 345.884444 0 0 1-15.985777-66.673778h-2.104889a553.016889 553.016889 0 0 1-18.545778 68.664889L727.04 1024h-203.662222l256-512L545.223111 0.853333h207.303111l119.125334 312.888889A630.328889 630.328889 0 0 1 896.682667 398.222222h2.048q10.865778-41.585778 26.339555-87.836444L1056.540444 0.625778H1246.663111l-241.322667 507.221333zM170.097778 1024H-0.056889V0.739556h455.111111L455.907556 170.666667H171.463111v284.444444h284.444445v170.666667H171.463111z" fill="#1296db" p-id="5639"></path></svg>